HIERARCHY
ROOT Hips
{
    OFFSET   0.000000   0.000000   0.000000
    CHANNELS 6 Xposition Yposition Zposition Zrotation Xrotation Yrotation
    JOINT Chest
    {
        OFFSET   0.000000   8.007230   0.000000
        CHANNELS 3 Zrotation Xrotation Yrotation
        JOINT Chest2
        {
            OFFSET   0.000000  22.077100   0.000000
            CHANNELS 3 Zrotation Xrotation Yrotation
            JOINT Neck
            {
                OFFSET   0.000000  23.254800  -0.000021
                CHANNELS 3 Zrotation Xrotation Yrotation
                JOINT Head
                {
                    OFFSET   0.000000  14.370000   1.956610
                    CHANNELS 3 Zrotation Xrotation Yrotation
                    End Site
                    {
                        OFFSET   0.000000  19.566000   0.000000
                    }
                }
            }
            JOINT LeftCollar
            {
                OFFSET   3.911900  19.017000  -0.467063
                CHANNELS 3 Zrotation Xrotation Yrotation
                JOINT LeftShoulder
                {
                    OFFSET  10.383700   0.000000   0.000000
                    CHANNELS 3 Zrotation Xrotation Yrotation
                    JOINT LeftElbow
                    {
                        OFFSET  26.662100   0.001529   0.000325
                        CHANNELS 3 Zrotation Xrotation Yrotation
                        JOINT LeftWrist
                        {
                            OFFSET  28.869000  -0.000011  -0.000096
                            CHANNELS 3 Zrotation Xrotation Yrotation
                            JOINT LeftFinger0
                            {
                                OFFSET   2.044650  -2.323460   3.252850
                                CHANNELS 3 Zrotation Xrotation Yrotation
                                JOINT LeftFinger01
                                {
                                    OFFSET   3.088130   0.000000   0.000000
                                    CHANNELS 3 Zrotation Xrotation Yrotation
                                    JOINT LeftFinger02
                                    {
                                        OFFSET   2.639460   0.000000   0.000000
                                        CHANNELS 3 Zrotation Xrotation Yrotation
                                        End Site
                                        {
                                            OFFSET   2.582190   0.000000   0.000000
                                        }
                                    }
                                }
                            }
                            JOINT LeftFinger1
                            {
                                OFFSET   8.364480   0.000000   3.252850
                                CHANNELS 3 Zrotation Xrotation Yrotation
                                JOINT LeftFinger11
                                {
                                    OFFSET   4.646930   0.000000   0.000000
                                    CHANNELS 3 Zrotation Xrotation Yrotation
                                    JOINT LeftFinger12
                                    {
                                        OFFSET   2.323460   0.000000   0.000000
                                        CHANNELS 3 Zrotation Xrotation Yrotation
                                        End Site
                                        {
                                            OFFSET   2.273050   0.000000   0.000000
                                        }
                                    }
                                }
                            }
                            JOINT LeftFinger2
                            {
                                OFFSET   8.364480   0.000016   1.078090
                                CHANNELS 3 Zrotation Xrotation Yrotation
                                JOINT LeftFinger21
                                {
                                    OFFSET   5.111620   0.000000   0.000000
                                    CHANNELS 3 Zrotation Xrotation Yrotation
                                    JOINT LeftFinger22
                                    {
                                        OFFSET   2.788160   0.000017   0.000000
                                        CHANNELS 3 Zrotation Xrotation Yrotation
                                        End Site
                                        {
                                            OFFSET   2.727660   0.000000   0.000000
                                        }
                                    }
                                }
                            }
                            JOINT LeftFinger3
                            {
                                OFFSET   7.899780   0.000015  -1.078090
                                CHANNELS 3 Zrotation Xrotation Yrotation
                                JOINT LeftFinger31
                                {
                                    OFFSET   4.646920   0.000000   0.000000
                                    CHANNELS 3 Zrotation Xrotation Yrotation
                                    JOINT LeftFinger32
                                    {
                                        OFFSET   2.323470   0.000000   0.000000
                                        CHANNELS 3 Zrotation Xrotation Yrotation
                                        End Site
                                        {
                                            OFFSET   2.273050   0.000000   0.000000
                                        }
                                    }
                                }
                            }
                            JOINT LeftFinger4
                            {
                                OFFSET   7.435090   0.000000  -3.252850
                                CHANNELS 3 Zrotation Xrotation Yrotation
                                JOINT LeftFinger41
                                {
                                    OFFSET   3.717550   0.000000   0.000000
                                    CHANNELS 3 Zrotation Xrotation Yrotation
                                    JOINT LeftFinger42
                                    {
                                        OFFSET   1.858760   0.000000   0.000000
                                        CHANNELS 3 Zrotation Xrotation Yrotation
                                        End Site
                                        {
                                            OFFSET   1.818440   0.000000   0.000000
                                        }
                                    }
                                }
                            }
                        }
                    }
                }
            }
            JOINT RightCollar
            {
                OFFSET  -3.911900  19.017000  -0.467062
                CHANNELS 3 Zrotation Xrotation Yrotation
                JOINT RightShoulder
                {
                    OFFSET -10.383700   0.000015   0.000000
                    CHANNELS 3 Zrotation Xrotation Yrotation
                    JOINT RightElbow
                    {
                        OFFSET -26.662100   0.001341   0.000385
                        CHANNELS 3 Zrotation Xrotation Yrotation
                        JOINT RightWrist
                        {
                            OFFSET -28.869000   0.000025  -0.000080
                            CHANNELS 3 Zrotation Xrotation Yrotation
                            JOINT RightFinger0
                            {
                                OFFSET  -2.044650  -2.323490   3.252850
                                CHANNELS 3 Zrotation Xrotation Yrotation
                                JOINT RightFinger01
                                {
                                    OFFSET  -3.088130   0.000000   0.000000
                                    CHANNELS 3 Zrotation Xrotation Yrotation
                                    JOINT RightFinger02
                                    {
                                        OFFSET  -2.639460   0.000000   0.000000
                                        CHANNELS 3 Zrotation Xrotation Yrotation
                                        End Site
                                        {
                                            OFFSET  -2.582190   0.000000   0.000000
                                        }
                                    }
                                }
                            }
                            JOINT RightFinger1
                            {
                                OFFSET  -8.364480   0.000000   3.252850
                                CHANNELS 3 Zrotation Xrotation Yrotation
                                JOINT RightFinger11
                                {
                                    OFFSET  -4.646930   0.000000   0.000000
                                    CHANNELS 3 Zrotation Xrotation Yrotation
                                    JOINT RightFinger12
                                    {
                                        OFFSET  -2.323470   0.000000   0.000000
                                        CHANNELS 3 Zrotation Xrotation Yrotation
                                        End Site
                                        {
                                            OFFSET  -2.273050   0.000000   0.000000
                                        }
                                    }
                                }
                            }
                            JOINT RightFinger2
                            {
                                OFFSET  -8.364480   0.000000   1.078090
                                CHANNELS 3 Zrotation Xrotation Yrotation
                                JOINT RightFinger21
                                {
                                    OFFSET  -5.111610   0.000000   0.000000
                                    CHANNELS 3 Zrotation Xrotation Yrotation
                                    JOINT RightFinger22
                                    {
                                        OFFSET  -2.788160   0.000000   0.000000
                                        CHANNELS 3 Zrotation Xrotation Yrotation
                                        End Site
                                        {
                                            OFFSET  -2.727660   0.000000   0.000000
                                        }
                                    }
                                }
                            }
                            JOINT RightFinger3
                            {
                                OFFSET  -7.899780   0.000000  -1.078090
                                CHANNELS 3 Zrotation Xrotation Yrotation
                                JOINT RightFinger31
                                {
                                    OFFSET  -4.646920   0.000000   0.000000
                                    CHANNELS 3 Zrotation Xrotation Yrotation
                                    JOINT RightFinger32
                                    {
                                        OFFSET  -2.323470   0.000000   0.000000
                                        CHANNELS 3 Zrotation Xrotation Yrotation
                                        End Site
                                        {
                                            OFFSET  -2.273050   0.000000   0.000000
                                        }
                                    }
                                }
                            }
                            JOINT RightFinger4
                            {
                                OFFSET  -7.435090   0.000000  -3.252850
                                CHANNELS 3 Zrotation Xrotation Yrotation
                                JOINT RightFinger41
                                {
                                    OFFSET  -3.717550   0.000000   0.000000
                                    CHANNELS 3 Zrotation Xrotation Yrotation
                                    JOINT RightFinger42
                                    {
                                        OFFSET  -1.858770   0.000000   0.000000
                                        CHANNELS 3 Zrotation Xrotation Yrotation
                                        End Site
                                        {
                                            OFFSET  -1.818440   0.000000   0.000000
                                        }
                                    }
                                }
                            }
                        }
                    }
                }
            }
        }
    }
    JOINT LeftHip
    {
        OFFSET   9.783010   0.000000   0.000000
        CHANNELS 3 Zrotation Xrotation Yrotation
        JOINT LeftKnee
        {
            OFFSET   0.000070 -41.789100   0.000028
            CHANNELS 3 Zrotation Xrotation Yrotation
            JOINT LeftAnkle
            {
                OFFSET   0.000087 -41.133200  -0.000100
                CHANNELS 3 Zrotation Xrotation Yrotation
                JOINT LeftToe
                {
                    OFFSET   0.000000  -6.358960  14.674500
                    CHANNELS 3 Zrotation Xrotation Yrotation
                    End Site
                    {
                        OFFSET   0.000000   0.000000   3.913200
                    }
                }
            }
        }
    }
    JOINT RightHip
    {
        OFFSET  -9.783020   0.000000   0.000000
        CHANNELS 3 Zrotation Xrotation Yrotation
        JOINT RightKnee
        {
            OFFSET   0.000044 -41.789100  -0.000870
            CHANNELS 3 Zrotation Xrotation Yrotation
            JOINT RightAnkle
            {
                OFFSET  -0.000090 -41.133200  -0.000245
                CHANNELS 3 Zrotation Xrotation Yrotation
                JOINT RightToe
                {
                    OFFSET   0.000000  -6.358960  14.674500
                    CHANNELS 3 Zrotation Xrotation Yrotation
                    End Site
                    {
                        OFFSET   0.000000   0.000000   3.913200
                    }
                }
            }
        }
    }
}
MOTION
Frames: 4
Frame Time:   0.016667
 -1.515810  89.535900  -1.445590  -0.926209  -2.142900   2.264550   0.430752   1.671200  -0.057174   0.863717   3.341890  -0.126995  -4.170270   2.658190   0.193622  -6.891470   5.304990   7.126010  -2.743590   2.567220   7.408620 -79.686200   4.159580   3.706640   0.101576   4.251460 -15.126400  12.170900  -5.739760  -1.405900  37.249000  30.107500 -45.441500 -34.352700  -0.000000   0.000086 -12.244900   0.000000  -0.001443 -37.852200  -1.231790   1.584480 -30.983900  -0.009023   0.000463 -21.681100   0.000685   0.007357 -28.575300  -3.755220   6.874820 -42.859400  -0.002372  -0.000940 -28.544400   0.002612  -0.001258 -28.603900  -4.649360   8.454860 -43.421600  -0.001233   0.001511 -28.918800   0.000179   0.001216 -40.436000  -6.287410   7.323150 -61.258200  -0.006422  -0.002563 -40.798000  -0.000678  -0.002638   7.317460   4.520730   4.027430  71.319700  -7.837140   1.528950   3.649850  -8.258050  11.096200 -20.041500   4.093050   3.187550 -43.506100  35.676000  76.545700  17.520100   0.004560  -0.002932   3.766450   0.004705  -0.014586  33.274800   5.045340   7.633460  27.500300  -0.002029   0.004876  19.250200   0.003470   0.000528  28.578100   3.218300   5.884460  40.062500   0.001718   0.000918  26.681600   0.001791   0.005910  28.662100   2.680550   4.890360  41.159800   0.001954   0.006857  27.412400   0.002627   0.005298  38.664800  -0.695289  -0.868722  58.005200   0.009246   0.005055  38.631400  -0.000532   0.005206   3.765930   2.781180  -4.093270  -0.125241   1.759170  11.770000  -3.060090  -3.123750   0.793610  -0.000000   0.000000   0.000000  -1.204650   3.518430  -4.400550   1.912320   1.806150 -14.226100  -0.329157  -3.368730  -3.217370  -0.000000   0.000000  -0.000000
 -1.525980  89.535900  -1.449750  -0.924644  -2.133890   2.316060   0.434547   1.678030  -0.065648   0.871574   3.355510  -0.144127  -4.079170   2.594650   0.184995  -6.739630   5.181400   7.154060  -2.766760   2.552460   7.420420 -79.704800   4.124940   3.749270   0.105914   4.244860 -15.048200  12.177300  -5.688660  -1.380550  37.224600  30.106500 -45.412100 -34.387300   0.000000   0.000092 -12.274500   0.000000  -0.001457 -37.847500  -1.217940   1.566930 -30.979700  -0.009039   0.000462 -21.681100   0.000692   0.007349 -28.568800  -3.755520   6.870590 -42.920100  -0.002373  -0.000943 -28.584800   0.002604  -0.001260 -28.601500  -4.637390   8.434270 -43.415400  -0.001223   0.001524 -28.914600   0.000170   0.001226 -40.387300  -6.265600   7.310450 -61.182000  -0.006440  -0.002561 -40.747200  -0.000682  -0.002640   7.321620   4.520760   4.059200  71.397300  -7.826230   1.418780   3.677320  -8.273200  11.064000 -20.024300   4.154760   3.169610 -43.496900  35.673600  76.545700  17.520600   0.004555  -0.002918   3.765250   0.004701  -0.014591  33.211100   5.018350   7.611470  27.445900  -0.002033   0.004866  19.212100   0.003468   0.000524  28.575500   3.206430   5.863580  39.964200   0.001713   0.000902  26.616100   0.001780   0.005898  28.660800   2.665440   4.863260  41.053400   0.001951   0.006853  27.341600   0.002615   0.005293  38.605000  -0.678808  -0.849872  57.915100   0.009243   0.005051  38.571400  -0.000535   0.005211   3.764100   2.754460  -4.097620  -0.129124   1.765210  11.742200  -3.061030  -3.111950   0.776399  -0.000000   0.000000   0.000000  -1.177860   3.513680  -4.403010   1.883410   1.801720 -14.272400  -0.325223  -3.368730  -3.221860   0.000000   0.000000  -0.000000
 -1.541520  89.535800  -1.456380  -0.922024  -2.117860   2.404330   0.441162   1.688290  -0.082840   0.885342   3.375890  -0.178814  -3.926540   2.493280   0.171089  -6.484530   4.984540   7.181310  -2.803190   2.529300   7.432170 -79.733400   4.064770   3.818070   0.114961   4.236850 -14.916000  12.190000  -5.606350  -1.345720  37.193000  30.099500 -45.379100 -34.439400   0.000000   0.000097 -12.318400   0.000000  -0.001489 -37.839900  -1.196900   1.540310 -30.973000  -0.009076   0.000458 -21.681100   0.000711   0.007327 -28.562600  -3.755850   6.862860 -43.017900  -0.002375  -0.000951 -28.649900   0.002580  -0.001264 -28.596500  -4.618910   8.402930 -43.404000  -0.001199   0.001558 -28.907000   0.000146   0.001252 -40.306000  -6.231400   7.291810 -61.055200  -0.006485  -0.002558 -40.662800  -0.000692  -0.002646   7.333690   4.520690   4.109660  71.522700  -7.815500   1.241690   3.723500  -8.289130  11.003900 -19.999000   4.257380   3.139930 -43.478300  35.663600  76.542000  17.521200   0.004547  -0.002882   3.760620   0.004689  -0.014600  33.107000   4.971980   7.571860  27.356800  -0.002042   0.004834  19.149800   0.003463   0.000513  28.571300   3.186210   5.827930  39.803500   0.001705   0.000861  26.509100   0.001755   0.005869  28.658600   2.638710   4.815240  40.879700   0.001942   0.006843  27.225900   0.002587   0.005277  38.506900  -0.651802  -0.818930  57.767400   0.009235   0.005042  38.473000  -0.000543   0.005225   3.760660   2.711950  -4.108550  -0.134684   1.771370  11.696800  -3.062620  -3.089990   0.748382  -0.000000   0.000000  -0.000000  -1.137520   3.508900  -4.412220   1.837800   1.788840 -14.348600  -0.317687  -3.368770  -3.226340   0.000000   0.000000  -0.000000
 -1.551060  89.535800  -1.461230  -0.915306  -2.102160   2.481100   0.446854   1.693860  -0.103226   0.897356   3.386870  -0.219818  -3.798490   2.420440   0.160695  -6.270940   4.843710   7.176720  -2.827550   2.513010   7.431270 -79.752100   4.009210   3.869110   0.125559   4.237370 -14.805500  12.204800  -5.544590  -1.333200  37.171400  30.083700 -45.377100 -34.470200   0.000041   0.000094 -12.344400   0.000000  -0.001533 -37.834300  -1.183220   1.522890 -30.967600  -0.009131   0.000452 -21.680900   0.000741   0.007293 -28.571000  -3.754930   6.855390 -43.087500  -0.002381  -0.000963 -28.696200   0.002543  -0.001272 -28.589800  -4.606460   8.382750 -43.391300  -0.001165   0.001616 -28.898600   0.000107   0.001292 -40.239100  -6.207440   7.280750 -60.951500  -0.006554  -0.002553 -40.593800  -0.000707  -0.002654   7.354120   4.520460   4.143590  71.613800  -7.822700   1.113110   3.764560  -8.290720  10.942200 -19.987800   4.339390   3.116190 -43.454100  35.634300  76.511600  17.501000   0.004542  -0.002821   3.748740   0.004665  -0.014603  33.027300   4.932470   7.535030  27.288200  -0.002058   0.004778  19.101800   0.003456   0.000499  28.567800   3.169800   5.798950  39.679300   0.001698   0.000796  26.426400   0.001718   0.005825  28.656900   2.614470   4.771540  40.746100   0.001930   0.006826  27.137000   0.002549   0.005251  38.430400  -0.630766  -0.794722  57.652200   0.009224   0.005027  38.396300  -0.000560   0.005247   3.756110   2.681400  -4.125380  -0.136689   1.767160  11.660700  -3.063910  -3.067640   0.728887  -0.000000   0.000000   0.000000  -1.112870   3.517520  -4.430870   1.806110   1.764690 -14.410300  -0.309139  -3.369490  -3.223300   0.000000   0.000000   0.000000
